<?xml version="1.0" encoding="UTF-8" standalone="no"?><!DOCTYPE svg PUBLIC "-//W3C//DTD SVG 1.1//EN" "http://www.w3.org/Graphics/SVG/1.1/DTD/svg11.dtd"><svg width="100%" height="100%" viewBox="0 0 822 822" version="1.1" xmlns="http://www.w3.org/2000/svg" xmlns:xlink="http://www.w3.org/1999/xlink" xml:space="preserve" xmlns:serif="http://www.serif.com/" style="fill-rule:evenodd;clip-rule:evenodd;"><text x="89.339px" y="64.906px" style="font-family:'Gotham-Bold', 'Gotham';font-size:66.667px;">E<tspan x="128.472px 164.206px 197.272px 218.939px 258.072px 295.739px 310.206px 354.672px 393.806px 431.472px 470.606px 513.272px 530.139px 577.272px 624.406px 667.072px 683.939px " y="64.906px 64.906px 64.906px 64.906px 64.906px 64.906px 64.906px 64.906px 64.906px 64.906px 64.906px 64.906px 64.906px 64.906px 64.906px 64.906px 64.906px ">LL-ET VETERINARIA</tspan></text><text x="95.699px" y="107.64px" style="font-family:'Gotham-Light', 'Gotham';font-weight:300;font-size:37.5px;fill:#676767;">S<tspan x="117.787px 139.874px 159.374px 166.799px 186.787px 199.874px 219.487px 228.824px 251.662px 259.087px 268.424px 285.149px 305.137px 318.224px 338.137px 345.562px 364.424px 371.849px 381.187px 404.024px 424.012px 437.099px 446.437px 453.862px 460.574px 480.562px 514.312px 537.149px 550.237px 569.249px 591.337px 600.674px 613.762px 625.912px 645.524px 666.599px 683.324px 694.612px 714.599px " y="107.64px 107.64px 107.64px 107.64px 107.64px 107.64px 107.64px 107.64px 107.64px 107.64px 107.64px 107.64px 107.64px 107.64px 107.64px 107.64px 107.64px 107.64px 107.64px 107.64px 107.64px 107.64px 107.64px 107.64px 107.64px 107.64px 107.64px 107.64px 107.64px 107.64px 107.64px 107.64px 107.64px 107.64px 107.64px 107.64px 107.64px 107.64px 107.64px ">ocietà di servizi per l&apos;embryo transfer</tspan></text><g id="Layer-3" serif:id="Layer 3"><circle id="path848" cx="410.661" cy="491.946" r="323.542" style="fill:url(#_Linear1);stroke:#000;stroke-width:12.24px;"/></g><g id="Layer-4" serif:id="Layer 4"><circle id="path848-4" cx="410.661" cy="491.946" r="302.292" style="fill:none;stroke:#000;stroke-width:5.24px;"/></g><g id="Layer-2" serif:id="Layer 2"><path id="path826-8" d="M231.34,685.839c-6.565,-17.761 -7.149,-22.767 -4.807,-41.225c1.466,-11.556 3.149,-24.828 3.741,-29.494c0.822,-6.491 -0.502,-8.955 -5.637,-10.486c-35.744,-16.534 -62.154,-80.931 -45.803,-109.121c1.91,-2.302 0.863,-7.312 -2.986,-14.289c-11.73,-21.264 -13.148,-26.759 -13.657,-52.932c-0.462,-23.756 0.434,-28.379 8.481,-43.75c8.484,-16.207 31.028,-40.402 37.877,-40.651c1.719,-0.059 6.641,-2.863 10.938,-6.224c4.297,-3.361 10.742,-6.143 14.323,-6.181c7.191,-0.727 13.629,-4.312 20.013,-4.852c16.55,-5.67 26.64,-25.004 39.381,-39.134c15.452,-18.121 53.77,-26.962 72.452,-26.302c12.417,0.483 23.364,-0.395 24.326,-1.951c1.32,-2.137 31.22,-18.167 33.35,-17.943c2.185,0.23 -23.427,16.77 -24.291,19.021c-0.825,2.15 8.36,12.933 20.41,23.962c13.574,12.423 21.929,22.53 21.959,26.561c0.087,11.856 4.126,14.965 14.274,10.986c13.858,-5.434 52.028,-6.39 61.382,-1.537c4.371,2.268 9.326,3.236 11.012,2.153c5.014,-3.224 2.231,-19.837 -5.563,-33.221c-7.708,-13.235 -32.767,-38.816 -38.618,-39.423c-6.686,-0.695 -9.788,-1.571 -18.097,-5.118c-8.309,-3.547 -29.377,-2.081 -35.376,2.462c-4.653,3.524 -29.51,15.048 -31.383,13.175c-3.274,-3.274 9.884,-15.374 24.173,-18.969c24.709,-6.216 52.367,-4.714 69.907,3.797c25.035,12.147 45.116,39.457 45.116,61.357c-0,14.638 5.332,26.372 16.89,37.17c4.461,4.167 8.11,9.925 8.11,12.797c-0,2.871 2.585,7.56 5.745,10.42c3.34,3.022 5.923,9.944 6.17,16.537c0.519,13.806 7.354,24.961 16.908,27.594c31.83,8.772 49.353,26.491 62.213,62.909c5.892,16.684 6.152,20.401 2.765,39.5c-2.057,11.596 -4.838,21.763 -6.18,22.592c-1.341,0.829 -3.231,5.468 -4.199,10.309c-2.132,10.659 -37.448,47.578 -45.513,47.578c-3.13,0 -7.91,2.461 -10.624,5.469c-3.917,27.513 4.748,67.788 -22.279,92.346c-5.332,4.814 -12.506,11.373 -15.944,14.576c-12.342,11.501 -33.401,19.833 -55.176,21.829c-34.307,9.764 -66.227,-28.655 -85.492,-31.095c-2.932,0 -13.261,8.086 -22.956,17.969c-19.461,19.84 -38.739,29.176 -64.547,31.259c-37.998,1.578 -78.446,-24.064 -92.788,-60.43Zm113.147,49.127c13.36,-10.242 43.011,-17.152 43.75,-36.337c-0,-8.953 -27.984,-22.353 -34.039,-16.299c-1.743,1.744 -14.922,3.306 -29.286,3.472c-36.808,-5.2 -67.639,-19.712 -78.607,-45.01c-0.719,-0 -3.531,-0.854 -6.25,-1.897c-4.13,-1.585 -4.938,0.855 -4.913,14.843c0.035,18.619 9.972,43.189 22.295,55.119c15.806,15.304 26.397,22.552 32.959,22.556c11.164,3.268 51.263,10.253 54.091,3.553l-0,0Zm230.008,-68.782c2.622,-6.232 5.346,-22.197 6.054,-35.479c1.095,-20.533 0.479,-24.565 -4.106,-26.922c-6.411,-3.295 -13.448,-1.27 -18.253,5.252c-1.916,2.601 -6.135,5.116 -9.375,5.588c-14.937,2.179 -24.424,5.639 -29.57,10.785c-7.988,7.989 -16.503,21.555 -14.676,23.382c0.855,0.856 -4.596,7.793 -12.114,15.418c-14.756,14.968 -37.53,29.709 -45.899,29.709c-7.015,-0 -6.782,12.204 0.275,14.388c3.008,0.931 8.147,3.144 11.42,4.918c13.643,7.392 39.491,9.08 58.111,3.793c23.857,-10.394 48.636,-30.583 58.133,-50.832Zm-136.627,19.568c5.813,-0.755 14.467,-4.148 19.232,-7.541c4.766,-3.393 10.457,-6.17 12.647,-6.17c38.279,-21.59 46.108,-71.699 32.556,-110.445c-6.228,-14.908 -24.991,-34.933 -40.544,-43.272c-17.496,-9.382 -59.667,-11.179 -61.9,-2.638c-0.863,3.3 1.709,9.123 6.14,13.902c4.193,4.522 8.201,10.651 8.905,13.619c0.705,2.969 2.853,11.725 4.774,19.46c8.234,51.076 -4.983,66.624 -26.611,97.106c0.914,1.479 -1.061,4.39 -4.39,6.469c-4.991,3.117 -5.472,5.054 -2.745,11.04c1.82,3.993 5.543,7.377 8.275,7.52c12.059,0.632 19.184,1.977 21.209,4.002c1.2,1.2 4.365,1.313 7.033,0.251c2.668,-1.061 9.606,-2.548 15.419,-3.303l0,0Zm-95.27,-10.585c14.579,-0 36.042,-11.357 49.501,-26.194c6.421,-7.078 11.87,-13.924 12.109,-15.213c0.225,-7.161 5.721,-13.593 5.904,-19.531c4.591,-24.548 3.295,-53.295 -9.94,-73.92c-3.127,-4.562 -5.685,-9.88 -5.685,-11.817c-0,-1.937 -2.461,-4.42 -5.469,-5.517c-3.008,-1.097 -12.879,-6.678 -21.936,-12.402c-14.244,-9.002 -19.175,-10.406 -36.534,-10.406c-11.037,-0 -20.936,1.406 -21.999,3.124c-1.062,1.719 -4.387,3.126 -7.389,3.126c-3.003,-0 -9.82,3.164 -15.149,7.031c-5.33,3.867 -12.807,9.14 -16.615,11.719c-19.76,14.225 -23.414,38.177 -28.129,56.25c-5.261,19.561 -5.477,18.114 6.865,46.052c33.576,41.759 56.836,49.554 94.466,47.698Zm222.201,-81.406c5.157,-2.684 9.832,-6.911 10.391,-9.394c0.559,-2.482 2.316,-4.982 3.906,-5.555c1.59,-0.573 2.891,-2.38 2.891,-4.016c-0,-1.636 2.309,-6.498 5.13,-10.805c8.517,-12.998 10.831,-44.564 5.073,-69.209c-2.862,-12.252 -10.437,-24.523 -24.693,-40c-7.345,-7.975 -23.209,-15.086 -26.314,-11.796c-1.295,1.371 -2.89,13.743 -3.546,27.493c-0.86,18.042 -3.301,29.504 -8.769,41.183c-4.167,8.9 -8.476,15.626 -9.575,14.947c-1.1,-0.679 -3.867,4.426 -6.151,11.346c-3.331,10.093 -3.395,14.675 -0.321,23.174c2.106,5.826 4.548,18.751 5.425,28.722c7.121,47.329 26.447,16.649 46.554,3.91l-0.001,-0Zm-329.828,-23.438c0.078,-3.524 1.303,-7.742 2.722,-9.375c1.42,-1.633 4.463,-8.96 6.761,-16.282c3.303,-10.521 3.388,-14.792 0.408,-20.361c-2.074,-3.876 -4.197,-14.221 -4.718,-22.989c-0.521,-8.768 -4.196,-22.809 -8.169,-31.202c-20.412,-34.795 -28.771,-12.956 -40.454,9.433c-8.81,17.005 -10.298,22.982 -9.921,39.844c0.568,25.402 11.13,46.743 31.108,62.856l14.591,11.769l3.766,-8.644c2.07,-4.754 3.828,-11.526 3.906,-15.05l-0,0.001Zm378.273,3.971c26.886,-25.579 31.11,-35.041 33.432,-74.885c1.338,-22.956 0.918,-24.925 -8.202,-38.438c-5.287,-7.834 -9.612,-15.993 -9.612,-18.132c-0,-5.12 -35.782,-23.923 -45.526,-23.923c-5.954,0 -7.599,1.637 -7.599,7.557c-0,4.157 -0.737,9.48 -1.639,11.829c-0.901,2.349 1.208,7.327 4.687,11.062c3.48,3.735 6.327,8.714 6.327,11.065c-0,2.35 3.342,7.413 7.426,11.25c14.691,13.801 16.925,66.06 4.044,94.56c-11.752,26.001 -5.419,29.062 16.662,8.055Zm-107.715,-36.298c-1.077,-3.395 0.161,-7.961 2.902,-10.702c2.63,-2.63 6.254,-8.052 8.053,-12.048c1.799,-3.997 5.299,-10.783 7.779,-15.079c6.408,-11.109 6.342,-60.288 -0.083,-65.625c-2.578,-2.14 -4.688,-6.401 -4.688,-9.469c0,-12.347 -40.002,-40.054 -59.375,-41.124c-2.578,-0.143 -6.355,-1.572 -8.394,-3.175c-2.33,-1.834 -6.114,-1.628 -10.191,0.555c-35.843,10.358 -41.267,9.157 -68.133,42.79c-22.169,28.166 -8.553,13.585 -7.595,-12.228c-0.958,-6.746 -2.216,-7.029 -30.487,-6.855c-46.053,-6.802 -59.789,41.503 -83.431,61.768c-3.837,-0.733 -1.367,43.164 2.712,48.206c4.884,6.038 12.61,4.559 20.691,-3.96c13.706,-14.164 35.948,-17.879 50.304,-19.185c9.372,-0.817 17.96,-2.055 19.086,-2.751c1.076,-0.665 2.3,-11.869 4.827,-22.185c3.461,-15.355 7.609,-28.761 17.797,-40.99c2.312,-2.722 -2.421,4.979 -1.805,4.599c0.964,-0.597 -0.916,3.219 -3.202,8.762c-2.492,6.041 -5.466,14.134 -5.766,20.805c-1.275,28.389 5.521,41.908 22.51,44.778c6.95,1.174 24.379,0.468 38.73,-1.569c19.814,-2.812 27.722,-2.832 32.861,-0.082c3.722,1.992 9.708,4.188 13.303,4.88c3.595,0.692 9.571,4.11 13.28,7.594c3.709,3.485 8.411,6.335 10.448,6.335c2.038,0 3.705,1.184 3.705,2.63c0,2.424 12.794,18.616 15.055,19.054c0.545,0.106 0.146,-2.473 -0.887,-5.729l-0.006,-0Zm-301.667,-88.655c18.967,-18.056 25.781,-28.92 25.781,-41.105c2.813,-10.076 10.712,-25.205 17.969,-30.67c7.767,-7.934 12.434,-19.243 12.5,-28.962c-0,-13.378 -0.434,-14.063 -8.909,-14.063c-31.178,2.748 -59.949,31.097 -73.185,54.602c-11.396,22.026 -7.924,76.753 4.86,76.604c2.088,-0.023 11.531,-7.407 20.984,-16.406Zm45.85,3.607c3.976,-6.59 6.215,-12.535 11.676,-17.167c2.421,-0.928 6.004,-5.557 7.962,-10.285c3.035,-7.326 2.381,-10.944 -4.425,-24.495c-4.726,-9.41 -9.852,-15.625 -12.559,-15.228c-5.517,0.81 -8.857,3.879 -9.81,9.015c-0.389,2.099 -2.684,10.149 -5.101,17.89c-4.556,14.596 -3.837,36.265 1.421,42.82c1.663,2.073 2.127,5.221 1.03,6.996c-1.203,1.946 -0.007,2.464 3.013,1.305c3.617,-3.01 5.966,-7.018 6.793,-10.851Zm316.148,-23.241c9.468,-20.78 -1.501,-58.221 -24.224,-82.679c-10.011,-10.776 -16.946,-15.611 -22.389,-15.611c-4.337,-0 -9.223,-1.338 -10.858,-2.973c-4.227,-4.228 -38.212,-6.922 -40.505,-3.211c-1.04,1.682 -6.634,3.059 -12.431,3.059c-8.254,-0 -12.059,2.133 -17.543,9.834c-6.41,9.001 -6.617,10.523 -2.448,17.968c5.165,9.225 22.292,18.699 34.209,18.922c4.398,0.083 10.726,2.215 14.062,4.739c3.337,2.523 8.397,4.632 11.245,4.687c5.911,0.118 34.645,30.715 32.341,34.442c-2.058,3.331 6.679,10.207 18.424,14.499c14.485,5.293 16.171,4.985 20.117,-3.676Zm-269.064,-32.665c8.782,-15.75 59.062,-56.835 47.239,-41.508c-2.362,3.062 -19.149,17.278 -26.103,24.607c-8.36,9.021 -9.541,21.614 -1.681,17.931c8.427,-3.948 44.335,-4.931 47.954,-1.312c4.657,4.656 19.544,4.295 24.59,-0.597c7.844,-7.604 28.483,-18.189 32.477,-16.656c2.205,0.846 5.811,-0.635 8.016,-3.291c3.393,-4.089 2.362,-6.173 -6.714,-13.581c-12.107,-9.88 -21.883,-12.159 -47.292,-11.023c-11.359,3.611 -59.67,18.242 -31.815,1.055c21.367,-9.84 32.24,-11.099 72.55,-8.402c20.156,1.348 23.384,-15.867 7.077,-37.738c-18.576,-24.913 -39.26,-38.069 -59.282,-37.707c-39.186,0.012 -72.127,22.033 -88.254,55.821c-9.569,21.494 -9.213,58.273 0.713,73.591c4.003,6.178 9.04,11.249 11.194,11.27c2.153,0.024 6.352,-5.586 9.331,-12.461l-0,0.001Z" style="fill-rule:nonzero;stroke:#000;stroke-width:4.17px;stroke-linejoin:round;stroke-miterlimit:2;"/></g><defs><linearGradient id="_Linear1" x1="0" y1="0" x2="1" y2="0" gradientUnits="userSpaceOnUse" gradientTransform="matrix(647.083,0,0,647.083,87.1189,491.946)"><stop offset="0" style="stop-color:#fff;stop-opacity:1"/><stop offset="0.02" style="stop-color:#ffeaea;stop-opacity:1"/><stop offset="1" style="stop-color:#fcc;stop-opacity:1"/></linearGradient></defs></svg>