<?xml version="1.0" encoding="UTF-8" standalone="no"?><!DOCTYPE svg PUBLIC "-//W3C//DTD SVG 1.1//EN" "http://www.w3.org/Graphics/SVG/1.1/DTD/svg11.dtd"><svg width="100%" height="100%" viewBox="0 0 160 160" version="1.1" xmlns="http://www.w3.org/2000/svg" xmlns:xlink="http://www.w3.org/1999/xlink" xml:space="preserve" xmlns:serif="http://www.serif.com/" style="fill-rule:evenodd;clip-rule:evenodd;"><g id="Layer-3" serif:id="Layer 3"><circle id="path848" cx="80" cy="80" r="77.65" style="fill:url(#_Linear1);stroke:#000;stroke-width:2.94px;"/></g><g id="Layer-4" serif:id="Layer 4"><circle id="path848-4" cx="80" cy="80" r="72.55" style="fill:none;stroke:#000;stroke-width:1.26px;"/></g><g id="Layer-2" serif:id="Layer 2"><path id="path826-8" d="M36.963,126.534c-1.576,-4.262 -1.716,-5.464 -1.154,-9.894c0.352,-2.773 0.756,-5.958 0.898,-7.078c0.198,-1.558 -0.12,-2.149 -1.353,-2.517c-8.578,-3.968 -14.917,-19.423 -10.992,-26.189c0.458,-0.552 0.207,-1.755 -0.717,-3.429c-2.815,-5.104 -3.156,-6.422 -3.278,-12.704c-0.111,-5.701 0.104,-6.811 2.036,-10.5c2.036,-3.89 7.446,-9.696 9.09,-9.756c0.413,-0.014 1.594,-0.687 2.625,-1.494c1.032,-0.807 2.578,-1.474 3.438,-1.483c1.726,-0.175 3.271,-1.035 4.803,-1.165c3.972,-1.361 6.394,-6.001 9.451,-9.392c3.709,-4.349 12.905,-6.471 17.389,-6.312c2.98,0.116 5.607,-0.095 5.838,-0.469c0.317,-0.513 7.493,-4.36 8.004,-4.306c0.524,0.055 -5.622,4.025 -5.83,4.565c-0.198,0.516 2.007,3.104 4.899,5.751c3.257,2.981 5.263,5.407 5.27,6.374c0.021,2.846 0.99,3.592 3.426,2.637c3.325,-1.304 12.486,-1.533 14.731,-0.369c1.049,0.545 2.239,0.777 2.643,0.517c1.203,-0.774 0.536,-4.761 -1.335,-7.973c-1.85,-3.176 -7.864,-9.316 -9.268,-9.462c-1.605,-0.166 -2.349,-0.377 -4.343,-1.228c-1.995,-0.851 -7.051,-0.499 -8.491,0.591c-1.116,0.846 -7.082,3.612 -7.532,3.162c-0.785,-0.786 2.372,-3.69 5.802,-4.553c5.93,-1.491 12.568,-1.131 16.777,0.912c6.009,2.915 10.828,9.469 10.828,14.725c0,3.513 1.28,6.33 4.054,8.921c1.07,1 1.946,2.382 1.946,3.071c0,0.69 0.621,1.815 1.379,2.501c0.802,0.726 1.422,2.387 1.481,3.969c0.124,3.314 1.765,5.991 4.058,6.623c7.639,2.105 11.845,6.357 14.931,15.098c1.414,4.004 1.477,4.896 0.663,9.48c-0.493,2.783 -1.16,5.223 -1.483,5.422c-0.321,0.199 -0.775,1.312 -1.007,2.474c-0.512,2.558 -8.988,11.419 -10.923,11.419c-0.752,-0 -1.899,0.591 -2.55,1.312c-0.94,6.603 1.139,16.27 -5.347,22.163c-1.28,1.156 -3.002,2.73 -3.827,3.499c-2.962,2.76 -8.016,4.759 -13.242,5.239c-8.234,2.343 -15.894,-6.878 -20.518,-7.463c-0.704,-0 -3.183,1.941 -5.509,4.312c-4.671,4.762 -9.298,7.003 -15.492,7.503c-9.119,0.378 -18.827,-5.776 -22.269,-14.504Zm27.155,11.791c3.207,-2.458 10.323,-4.117 10.5,-8.721c0,-2.149 -6.716,-5.365 -8.169,-3.912c-0.418,0.419 -3.581,0.794 -7.029,0.834c-8.834,-1.249 -16.233,-4.731 -18.865,-10.803c-0.173,-0 -0.848,-0.205 -1.5,-0.455c-0.992,-0.381 -1.185,0.205 -1.179,3.562c0.008,4.469 2.393,10.365 5.35,13.229c3.794,3.673 6.336,5.412 7.911,5.413c2.679,0.785 12.303,2.461 12.981,0.853l0,-0Zm55.202,-16.508c0.629,-1.495 1.283,-5.327 1.453,-8.515c0.263,-4.928 0.115,-5.895 -0.985,-6.461c-1.539,-0.791 -3.228,-0.305 -4.381,1.26c-0.46,0.625 -1.472,1.228 -2.25,1.342c-3.585,0.522 -5.862,1.353 -7.097,2.588c-1.917,1.917 -3.961,5.173 -3.522,5.612c0.205,0.205 -1.103,1.87 -2.907,3.7c-3.542,3.592 -9.008,7.13 -11.016,7.13c-1.684,-0 -1.628,2.929 0.066,3.453c0.722,0.224 1.955,0.755 2.741,1.18c3.274,1.775 9.478,2.18 13.946,0.911c5.726,-2.495 11.673,-7.34 13.952,-12.2Zm-32.79,4.696c1.395,-0.181 3.472,-0.995 4.616,-1.809c1.143,-0.815 2.509,-1.481 3.035,-1.481c9.187,-5.182 11.066,-17.208 7.813,-26.507c-1.495,-3.578 -5.998,-8.384 -9.73,-10.385c-4.199,-2.252 -14.32,-2.683 -14.856,-0.633c-0.208,0.792 0.41,2.189 1.473,3.336c1.007,1.085 1.968,2.556 2.138,3.269c0.169,0.712 0.684,2.814 1.145,4.67c1.976,12.258 -1.196,15.99 -6.386,23.305c0.219,0.355 -0.255,1.054 -1.054,1.553c-1.198,0.748 -1.313,1.213 -0.659,2.65c0.437,0.958 1.331,1.77 1.986,1.804c2.894,0.152 4.604,0.475 5.09,0.961c0.288,0.288 1.048,0.315 1.688,0.06c0.64,-0.255 2.306,-0.611 3.701,-0.792l-0,-0.001Zm-22.865,-2.54c3.499,-0 8.65,-2.726 11.88,-6.286c1.541,-1.699 2.849,-3.342 2.906,-3.652c0.054,-1.718 1.373,-3.262 1.417,-4.687c1.102,-5.892 0.791,-12.791 -2.385,-17.741c-0.751,-1.095 -1.365,-2.371 -1.365,-2.836c0,-0.465 -0.59,-1.061 -1.312,-1.324c-0.722,-0.263 -3.091,-1.603 -5.265,-2.976c-3.419,-2.161 -4.602,-2.498 -8.768,-2.498c-2.649,-0 -5.025,0.337 -5.28,0.75c-0.255,0.412 -1.053,0.75 -1.773,0.75c-0.721,-0 -2.357,0.759 -3.636,1.687c-1.279,0.929 -3.074,2.194 -3.988,2.813c-4.742,3.414 -5.619,9.163 -6.75,13.5c-1.263,4.695 -1.315,4.347 1.647,11.053c8.058,10.022 13.641,11.893 22.672,11.447Zm53.328,-19.537c1.238,-0.645 2.36,-1.659 2.494,-2.255c0.134,-0.596 0.556,-1.196 0.938,-1.333c0.381,-0.138 0.693,-0.571 0.693,-0.964c0,-0.393 0.554,-1.56 1.232,-2.593c2.044,-3.12 2.599,-10.696 1.217,-16.61c-0.687,-2.941 -2.505,-5.886 -5.926,-9.6c-1.763,-1.914 -5.57,-3.621 -6.316,-2.831c-0.31,0.329 -0.693,3.298 -0.851,6.598c-0.206,4.33 -0.792,7.081 -2.104,9.884c-1,2.136 -2.035,3.75 -2.298,3.587c-0.264,-0.163 -0.928,1.062 -1.477,2.723c-0.799,2.423 -0.814,3.522 -0.077,5.562c0.506,1.398 1.092,4.5 1.302,6.893c1.71,11.359 6.348,3.996 11.173,0.939l0,-0Zm-79.159,-5.626c0.019,-0.845 0.313,-1.858 0.654,-2.25c0.341,-0.391 1.071,-2.15 1.622,-3.907c0.793,-2.525 0.814,-3.55 0.098,-4.887c-0.497,-0.93 -1.007,-3.413 -1.132,-5.517c-0.125,-2.104 -1.007,-5.474 -1.96,-7.489c-4.899,-8.351 -6.906,-3.109 -9.71,2.264c-2.114,4.081 -2.471,5.516 -2.381,9.563c0.137,6.096 2.672,11.218 7.466,15.085l3.502,2.825l0.904,-2.075c0.497,-1.141 0.919,-2.766 0.937,-3.612l0,0Zm90.786,0.954c6.453,-6.14 7.466,-8.41 8.024,-17.973c0.321,-5.509 0.22,-5.982 -1.969,-9.225c-1.269,-1.88 -2.307,-3.838 -2.307,-4.352c0,-1.229 -8.587,-5.741 -10.926,-5.741c-1.429,-0 -1.824,0.393 -1.824,1.814c0,0.997 -0.177,2.275 -0.393,2.838c-0.216,0.564 0.29,1.759 1.125,2.655c0.835,0.897 1.518,2.092 1.518,2.656c0,0.564 0.802,1.779 1.783,2.7c3.525,3.312 4.062,15.854 0.97,22.694c-2.82,6.24 -1.3,6.975 3.999,1.934Zm-25.852,-8.712c-0.258,-0.815 0.039,-1.911 0.697,-2.569c0.631,-0.631 1.501,-1.932 1.933,-2.891c0.431,-0.959 1.271,-2.588 1.866,-3.619c1.539,-2.666 1.523,-14.469 -0.019,-15.75c-0.619,-0.514 -1.125,-1.536 -1.125,-2.272c-0,-2.964 -9.601,-9.613 -14.25,-9.87c-0.619,-0.035 -1.526,-0.377 -2.015,-0.762c-0.559,-0.44 -1.467,-0.391 -2.446,0.133c-8.602,2.486 -9.904,2.198 -16.352,10.27c-5.32,6.759 -2.052,3.26 -1.823,-2.935c-0.229,-1.619 -0.532,-1.687 -7.316,-1.645c-11.053,-1.633 -14.35,9.96 -20.024,14.824c-0.921,-0.176 -0.328,10.359 0.651,11.569c1.172,1.45 3.026,1.095 4.966,-0.95c3.289,-3.399 8.627,-4.291 12.073,-4.604c2.249,-0.196 4.31,-0.494 4.58,-0.661c0.259,-0.159 0.552,-2.848 1.159,-5.324c0.83,-3.685 1.826,-6.903 4.271,-9.838c0.555,-0.653 -0.581,1.195 -0.433,1.104c0.231,-0.143 -0.22,0.773 -0.769,2.103c-0.598,1.45 -1.311,3.392 -1.383,4.993c-0.306,6.814 1.325,10.058 5.402,10.747c1.668,0.282 5.851,0.112 9.295,-0.377c4.756,-0.675 6.654,-0.679 7.887,-0.019c0.893,0.478 2.33,1.005 3.193,1.171c0.862,0.166 2.297,0.986 3.187,1.822c0.89,0.837 2.018,1.521 2.507,1.521c0.489,-0 0.89,0.284 0.89,0.631c-0,0.582 3.07,4.468 3.613,4.573c0.131,0.025 0.035,-0.594 -0.213,-1.375l-0.002,-0Zm-72.4,-21.277c4.552,-4.334 6.188,-6.941 6.188,-9.865c0.675,-2.419 2.571,-6.05 4.312,-7.361c1.865,-1.904 2.984,-4.619 3,-6.951c0,-3.211 -0.104,-3.375 -2.138,-3.375c-7.483,0.659 -14.388,7.463 -17.564,13.104c-2.735,5.287 -1.902,18.421 1.166,18.385c0.501,-0.005 2.768,-1.777 5.036,-3.937Zm11.004,0.865c0.955,-1.581 1.492,-3.008 2.803,-4.119c0.581,-0.223 1.441,-1.334 1.911,-2.469c0.728,-1.758 0.571,-2.627 -1.063,-5.879c-1.134,-2.258 -2.364,-3.75 -3.014,-3.655c-1.324,0.195 -2.125,0.932 -2.354,2.164c-0.093,0.504 -0.644,2.436 -1.224,4.294c-1.094,3.503 -0.921,8.703 0.341,10.277c0.399,0.497 0.51,1.253 0.247,1.678c-0.289,0.468 -0.002,0.592 0.723,0.314c0.868,-0.723 1.432,-1.685 1.63,-2.605Zm75.876,-5.577c2.272,-4.988 -0.36,-13.973 -5.814,-19.843c-2.402,-2.586 -4.067,-3.747 -5.373,-3.747c-1.041,-0 -2.214,-0.321 -2.606,-0.713c-1.015,-1.015 -9.171,-1.662 -9.721,-0.771c-0.25,0.404 -1.593,0.734 -2.984,0.734c-1.981,-0 -2.894,0.512 -4.21,2.36c-1.538,2.16 -1.588,2.526 -0.588,4.313c1.24,2.214 5.35,4.487 8.21,4.541c1.056,0.02 2.575,0.531 3.375,1.137c0.801,0.606 2.016,1.112 2.699,1.125c1.419,0.028 8.315,7.372 7.762,8.266c-0.494,0.8 1.603,2.45 4.422,3.48c3.476,1.27 3.881,1.196 4.828,-0.882Zm-64.576,-7.84c2.108,-3.78 14.175,-13.64 11.338,-9.962c-0.567,0.735 -4.596,4.147 -6.265,5.906c-2.006,2.165 -2.29,5.187 -0.403,4.303c2.022,-0.947 10.64,-1.183 11.509,-0.315c1.117,1.118 4.69,1.031 5.901,-0.143c1.883,-1.825 6.836,-4.365 7.795,-3.997c0.529,0.203 1.394,-0.153 1.924,-0.79c0.814,-0.981 0.567,-1.482 -1.612,-3.26c-2.905,-2.371 -5.252,-2.918 -11.35,-2.645c-2.726,0.867 -14.321,4.378 -7.635,0.253c5.128,-2.362 7.737,-2.664 17.412,-2.017c4.837,0.324 5.612,-3.808 1.698,-9.057c-4.458,-5.979 -9.422,-9.136 -14.228,-9.049c-9.404,0.003 -17.31,5.288 -21.181,13.397c-2.296,5.158 -2.211,13.985 0.172,17.662c0.96,1.482 2.169,2.699 2.686,2.705c0.517,0.005 1.525,-1.341 2.239,-2.991l0,-0Z" style="fill-rule:nonzero;stroke:#000;stroke-width:1px;stroke-linejoin:round;stroke-miterlimit:2;"/></g><defs><linearGradient id="_Linear1" x1="0" y1="0" x2="1" y2="0" gradientUnits="userSpaceOnUse" gradientTransform="matrix(155.3,0,0,155.3,2.35,80)"><stop offset="0" style="stop-color:#fff;stop-opacity:0"/><stop offset="0.02" style="stop-color:#ffeaea;stop-opacity:0"/><stop offset="1" style="stop-color:#fcc;stop-opacity:0"/></linearGradient></defs></svg>