<?xml version="1.0" encoding="UTF-8" standalone="no"?><!DOCTYPE svg PUBLIC "-//W3C//DTD SVG 1.1//EN" "http://www.w3.org/Graphics/SVG/1.1/DTD/svg11.dtd"><svg width="100%" height="100%" viewBox="0 0 265 190" version="1.1" xmlns="http://www.w3.org/2000/svg" xmlns:xlink="http://www.w3.org/1999/xlink" xml:space="preserve" xmlns:serif="http://www.serif.com/" style="fill-rule:evenodd;clip-rule:evenodd;"><g><text x="3.3px" y="21.998px" style="font-family:'Gotham-Bold', 'Gotham';font-size:27.083px;">E<tspan x="18.846px 33.011px 46.092px 54.542px 70.088px 85.038px 90.563px 108.275px 123.821px 138.771px 154.317px 171.298px 177.798px 196.594px 215.39px 232.371px 238.871px " y="21.998px 21.998px 21.998px 21.998px 21.998px 21.998px 21.998px 21.998px 21.998px 21.998px 21.998px 21.998px 21.998px 21.998px 21.998px 21.998px 21.998px ">LL-ET VETERINARIA</tspan></text><text x="5.769px" y="37.679px" style="font-family:'Gotham-Light', 'Gotham';font-weight:300;font-size:13.546px;fill:#676767;">So<tspan x="22.973px 30.64px 33.945px 41.789px 47.139px 54.847px 58.843px 67.716px 71.021px 75.018px 81.682px 89.526px 94.876px 102.693px 105.998px 113.435px 116.74px 120.736px 129.609px 137.452px 142.803px 146.799px 150.104px 153.152px 160.996px 173.81px 182.683px 188.034px 195.525px 204.127px 208.123px 213.474px 218.486px 226.194px 234.43px 241.095px 245.795px " y="37.679px 37.679px 37.679px 37.679px 37.679px 37.679px 37.679px 37.679px 37.679px 37.679px 37.679px 37.679px 37.679px 37.679px 37.679px 37.679px 37.679px 37.679px 37.679px 37.679px 37.679px 37.679px 37.679px 37.679px 37.679px 37.679px 37.679px 37.679px 37.679px 37.679px 37.679px 37.679px 37.679px 37.679px 37.679px 37.679px 37.679px ">cietà di servizi per l&apos;embryo transfe</tspan>r</text></g><g><circle id="path848" cx="132.596" cy="123.601" r="66.399" style="fill:url(#_Linear1);stroke:#000;stroke-width:2.51px;"/><circle id="path848-4" cx="132.596" cy="123.601" r="62.038" style="fill:none;stroke:#000;stroke-width:1.08px;"/><path id="path826-8" d="M95.795,163.393c-1.348,-3.645 -1.467,-4.673 -0.987,-8.461c0.301,-2.371 0.646,-5.095 0.768,-6.053c0.169,-1.332 -0.103,-1.837 -1.157,-2.152c-7.335,-3.393 -12.755,-16.609 -9.4,-22.394c0.392,-0.472 0.177,-1.501 -0.613,-2.932c-2.407,-4.364 -2.698,-5.492 -2.802,-10.863c-0.095,-4.876 0.089,-5.824 1.74,-8.979c1.741,-3.326 6.368,-8.291 7.773,-8.343c0.353,-0.012 1.363,-0.587 2.245,-1.277c0.882,-0.69 2.205,-1.261 2.94,-1.268c1.475,-0.15 2.797,-0.885 4.107,-0.996c3.396,-1.164 5.467,-5.132 8.082,-8.031c3.171,-3.719 11.035,-5.534 14.869,-5.398c2.548,0.099 4.795,-0.081 4.992,-0.401c0.271,-0.438 6.407,-3.728 6.844,-3.682c0.449,0.047 -4.807,3.442 -4.985,3.904c-0.169,0.441 1.716,2.654 4.189,4.917c2.786,2.55 4.5,4.624 4.506,5.451c0.018,2.433 0.847,3.071 2.93,2.255c2.844,-1.115 10.677,-1.312 12.597,-0.316c0.897,0.466 1.914,0.664 2.26,0.442c1.029,-0.661 0.458,-4.071 -1.142,-6.818c-1.582,-2.716 -6.724,-7.966 -7.925,-8.09c-1.372,-0.143 -2.009,-0.323 -3.714,-1.051c-1.705,-0.727 -6.029,-0.427 -7.26,0.506c-0.955,0.723 -6.056,3.088 -6.441,2.704c-0.672,-0.672 2.029,-3.156 4.961,-3.893c5.071,-1.276 10.747,-0.968 14.347,0.779c5.138,2.493 9.259,8.097 9.259,12.592c-0,3.004 1.094,5.412 3.466,7.628c0.915,0.855 1.664,2.037 1.664,2.626c0,0.59 0.531,1.552 1.179,2.139c0.686,0.62 1.216,2.041 1.267,3.394c0.106,2.833 1.509,5.122 3.47,5.663c6.532,1.8 10.128,5.436 12.767,12.91c1.209,3.424 1.263,4.187 0.568,8.107c-0.422,2.379 -0.993,4.466 -1.269,4.636c-0.275,0.17 -0.663,1.122 -0.861,2.116c-0.438,2.187 -7.686,9.764 -9.341,9.764c-0.642,-0 -1.623,0.505 -2.18,1.122c-0.804,5.647 0.974,13.912 -4.572,18.952c-1.095,0.988 -2.567,2.334 -3.272,2.991c-2.533,2.361 -6.855,4.071 -11.324,4.48c-7.041,2.004 -13.591,-5.881 -17.545,-6.381c-0.602,-0 -2.721,1.659 -4.711,3.687c-3.994,4.072 -7.95,5.988 -13.247,6.416c-7.798,0.323 -16.099,-4.939 -19.042,-12.402Zm23.22,10.082c2.742,-2.102 8.827,-3.52 8.979,-7.457c-0,-1.838 -5.743,-4.588 -6.986,-3.345c-0.357,0.358 -3.062,0.678 -6.01,0.712c-7.554,-1.067 -13.881,-4.045 -16.132,-9.237c-0.148,-0 -0.725,-0.175 -1.283,-0.389c-0.847,-0.326 -1.013,0.175 -1.008,3.046c0.007,3.821 2.047,8.863 4.576,11.312c3.243,3.14 5.417,4.628 6.764,4.629c2.291,0.67 10.52,2.104 11.1,0.729Zm47.204,-14.116c0.538,-1.279 1.097,-4.555 1.242,-7.281c0.225,-4.214 0.099,-5.041 -0.842,-5.525c-1.316,-0.676 -2.76,-0.261 -3.746,1.078c-0.394,0.533 -1.259,1.05 -1.924,1.146c-3.066,0.448 -5.013,1.158 -6.069,2.214c-1.639,1.639 -3.387,4.423 -3.012,4.798c0.176,0.176 -0.943,1.6 -2.486,3.165c-3.028,3.071 -7.702,6.097 -9.42,6.097c-1.439,-0 -1.391,2.504 0.057,2.952c0.617,0.191 1.672,0.646 2.344,1.01c2.799,1.517 8.104,1.863 11.925,0.778c4.896,-2.133 9.982,-6.276 11.931,-10.432Zm-28.04,4.016c1.193,-0.155 2.969,-0.851 3.947,-1.548c0.978,-0.696 2.146,-1.266 2.596,-1.266c7.856,-4.431 9.462,-14.714 6.681,-22.666c-1.278,-3.06 -5.129,-7.169 -8.32,-8.881c-3.591,-1.925 -12.246,-2.294 -12.704,-0.541c-0.177,0.677 0.351,1.872 1.26,2.853c0.861,0.928 1.683,2.186 1.828,2.795c0.144,0.609 0.585,2.406 0.979,3.994c1.69,10.482 -1.022,13.673 -5.461,19.928c0.188,0.304 -0.218,0.901 -0.901,1.328c-1.024,0.64 -1.123,1.037 -0.563,2.266c0.373,0.819 1.137,1.514 1.698,1.543c2.475,0.13 3.937,0.406 4.353,0.821c0.246,0.247 0.896,0.27 1.443,0.052c0.548,-0.218 1.972,-0.523 3.164,-0.678Zm-19.551,-2.172c2.992,-0 7.396,-2.331 10.159,-5.376c1.317,-1.453 2.436,-2.858 2.485,-3.122c0.046,-1.47 1.174,-2.79 1.211,-4.008c0.942,-5.038 0.676,-10.938 -2.04,-15.171c-0.641,-0.936 -1.166,-2.027 -1.166,-2.425c-0,-0.397 -0.505,-0.907 -1.123,-1.132c-0.617,-0.225 -2.643,-1.371 -4.502,-2.545c-2.923,-1.848 -3.935,-2.136 -7.497,-2.136c-2.265,0 -4.297,0.289 -4.515,0.641c-0.218,0.353 -0.9,0.642 -1.516,0.642c-0.617,-0 -2.016,0.649 -3.109,1.443c-1.094,0.793 -2.629,1.876 -3.41,2.405c-4.055,2.919 -4.805,7.835 -5.773,11.544c-1.08,4.014 -1.124,3.717 1.409,9.451c6.891,8.57 11.664,10.17 19.387,9.789Zm45.601,-16.707c1.058,-0.551 2.018,-1.418 2.132,-1.928c0.115,-0.509 0.476,-1.022 0.802,-1.14c0.326,-0.117 0.593,-0.488 0.593,-0.824c0,-0.336 0.474,-1.334 1.053,-2.218c1.748,-2.667 2.223,-9.145 1.041,-14.203c-0.587,-2.514 -2.142,-5.033 -5.067,-8.209c-1.508,-1.637 -4.763,-3.096 -5.401,-2.421c-0.265,0.282 -0.593,2.821 -0.727,5.642c-0.177,3.703 -0.678,6.055 -1.8,8.452c-0.855,1.827 -1.74,3.207 -1.965,3.068c-0.226,-0.14 -0.794,0.908 -1.262,2.328c-0.684,2.072 -0.697,3.012 -0.066,4.756c0.432,1.196 0.933,3.848 1.113,5.895c1.461,9.713 5.428,3.416 9.554,0.802l-0,0Zm-67.689,-4.81c0.016,-0.723 0.267,-1.589 0.559,-1.924c0.291,-0.335 0.915,-1.839 1.387,-3.341c0.678,-2.16 0.695,-3.036 0.084,-4.179c-0.426,-0.796 -0.862,-2.919 -0.968,-4.718c-0.107,-1.799 -0.862,-4.681 -1.677,-6.403c-4.189,-7.141 -5.904,-2.659 -8.302,1.935c-1.808,3.49 -2.114,4.717 -2.036,8.177c0.116,5.214 2.284,9.593 6.384,12.9l2.994,2.415l0.773,-1.774c0.425,-0.975 0.786,-2.365 0.802,-3.088l-0,-0Zm77.631,0.815c5.518,-5.25 6.385,-7.191 6.861,-15.368c0.275,-4.712 0.189,-5.116 -1.683,-7.889c-1.085,-1.608 -1.973,-3.282 -1.973,-3.721c0,-1.051 -7.343,-4.91 -9.343,-4.91c-1.222,0 -1.559,0.336 -1.559,1.551c-0,0.853 -0.152,1.946 -0.337,2.428c-0.185,0.482 0.248,1.504 0.962,2.27c0.714,0.767 1.299,1.788 1.299,2.271c-0,0.482 0.686,1.521 1.524,2.309c3.015,2.832 3.473,13.557 0.83,19.406c-2.412,5.336 -1.113,5.964 3.419,1.653Zm-22.106,-7.449c-0.221,-0.697 0.033,-1.634 0.596,-2.197c0.54,-0.539 1.283,-1.652 1.652,-2.472c0.37,-0.82 1.088,-2.213 1.597,-3.095c1.315,-2.28 1.301,-12.372 -0.017,-13.468c-0.529,-0.439 -0.962,-1.313 -0.962,-1.943c-0,-2.534 -8.21,-8.22 -12.185,-8.44c-0.53,-0.029 -1.305,-0.322 -1.723,-0.651c-0.478,-0.377 -1.255,-0.334 -2.092,0.114c-7.355,2.125 -8.469,1.879 -13.982,8.781c-4.55,5.781 -1.755,2.788 -1.559,-2.509c-0.196,-1.385 -0.455,-1.443 -6.257,-1.407c-9.451,-1.396 -12.27,8.517 -17.122,12.676c-0.787,-0.15 -0.28,8.859 0.557,9.893c1.002,1.24 2.588,0.936 4.246,-0.812c2.813,-2.907 7.378,-3.67 10.324,-3.938c1.923,-0.167 3.686,-0.421 3.917,-0.564c0.221,-0.137 0.472,-2.436 0.99,-4.553c0.711,-3.151 1.562,-5.903 3.653,-8.412c0.474,-0.559 -0.497,1.022 -0.371,0.944c0.198,-0.123 -0.188,0.66 -0.657,1.798c-0.511,1.24 -1.122,2.9 -1.183,4.269c-0.262,5.827 1.133,8.601 4.62,9.19c1.426,0.241 5.003,0.096 7.948,-0.322c4.066,-0.577 5.689,-0.581 6.744,-0.017c0.764,0.409 1.992,0.86 2.73,1.002c0.738,0.142 1.964,0.843 2.725,1.558c0.761,0.715 1.726,1.3 2.144,1.3c0.419,0 0.761,0.243 0.761,0.54c-0,0.498 2.625,3.821 3.089,3.91c0.112,0.022 0.03,-0.507 -0.182,-1.175l-0.001,-0Zm-61.909,-18.195c3.892,-3.705 5.29,-5.935 5.29,-8.435c0.578,-2.068 2.199,-5.173 3.688,-6.295c1.594,-1.628 2.552,-3.949 2.565,-5.943c0,-2.746 -0.089,-2.886 -1.828,-2.886c-6.398,0.564 -12.303,6.381 -15.019,11.205c-2.339,4.521 -1.626,15.752 0.997,15.721c0.429,-0.004 2.367,-1.52 4.307,-3.367Zm9.409,0.741c0.816,-1.353 1.276,-2.573 2.396,-3.523c0.497,-0.191 1.233,-1.141 1.634,-2.111c0.623,-1.504 0.489,-2.246 -0.908,-5.027c-0.97,-1.931 -2.022,-3.207 -2.577,-3.125c-1.132,0.166 -1.818,0.796 -2.013,1.85c-0.08,0.431 -0.551,2.083 -1.047,3.671c-0.935,2.996 -0.788,7.443 0.291,8.788c0.342,0.425 0.437,1.071 0.212,1.436c-0.247,0.399 -0.002,0.505 0.618,0.268c0.742,-0.618 1.224,-1.441 1.394,-2.227Zm64.882,-4.77c1.943,-4.265 -0.308,-11.948 -4.972,-16.968c-2.054,-2.211 -3.477,-3.204 -4.594,-3.204c-0.891,0 -1.893,-0.274 -2.229,-0.61c-0.867,-0.867 -7.842,-1.42 -8.312,-0.659c-0.214,0.346 -1.362,0.628 -2.552,0.628c-1.694,0 -2.474,0.438 -3.6,2.018c-1.315,1.848 -1.358,2.16 -0.502,3.688c1.06,1.893 4.575,3.837 7.02,3.883c0.903,0.017 2.202,0.455 2.886,0.973c0.685,0.517 1.723,0.95 2.308,0.962c1.213,0.024 7.11,6.303 6.637,7.068c-0.422,0.683 1.371,2.095 3.781,2.975c2.973,1.087 3.319,1.023 4.129,-0.754Zm-55.219,-6.704c1.802,-3.232 12.121,-11.664 9.695,-8.518c-0.485,0.628 -3.93,3.546 -5.357,5.05c-1.716,1.851 -1.958,4.436 -0.345,3.68c1.729,-0.81 9.098,-1.012 9.841,-0.27c0.956,0.956 4.011,0.882 5.046,-0.122c1.61,-1.561 5.846,-3.733 6.666,-3.418c0.452,0.173 1.192,-0.131 1.645,-0.676c0.696,-0.839 0.484,-1.267 -1.378,-2.787c-2.485,-2.027 -4.491,-2.495 -9.706,-2.262c-2.331,0.741 -12.246,3.744 -6.529,0.216c4.385,-2.019 6.616,-2.277 14.889,-1.724c4.137,0.277 4.799,-3.256 1.452,-7.745c-3.812,-5.112 -8.057,-7.812 -12.166,-7.738c-8.042,0.002 -14.802,4.522 -18.112,11.456c-1.963,4.411 -1.89,11.959 0.147,15.103c0.821,1.267 1.855,2.308 2.297,2.312c0.442,0.005 1.304,-1.146 1.915,-2.557l-0,0Z" style="fill-rule:nonzero;stroke:#000;stroke-width:0.86px;stroke-linejoin:round;stroke-miterlimit:2;"/></g><defs><linearGradient id="_Linear1" x1="0" y1="0" x2="1" y2="0" gradientUnits="userSpaceOnUse" gradientTransform="matrix(132.798,0,0,132.798,66.197,123.601)"><stop offset="0" style="stop-color:#fff;stop-opacity:1"/><stop offset="0.02" style="stop-color:#ffeaea;stop-opacity:1"/><stop offset="1" style="stop-color:#fcc;stop-opacity:1"/></linearGradient></defs></svg>